<svg width="32" height="32" viewBox="0 0 32 32" fill="none" xmlns="http://www.w3.org/2000/svg">
<path d="M28.3862 18.3575L23.75 15.575V13C23.7503 12.8681 23.7158 12.7384 23.65 12.624C23.5841 12.5097 23.4893 12.4147 23.375 12.3488L16.75 8.565V5.75H19C19.1989 5.75 19.3897 5.67098 19.5303 5.53033C19.671 5.38968 19.75 5.19891 19.75 5C19.75 4.80109 19.671 4.61032 19.5303 4.46967C19.3897 4.32902 19.1989 4.25 19 4.25H16.75V2C16.75 1.80109 16.671 1.61032 16.5303 1.46967C16.3897 1.32902 16.1989 1.25 16 1.25C15.8011 1.25 15.6103 1.32902 15.4697 1.46967C15.329 1.61032 15.25 1.80109 15.25 2V4.25H13C12.8011 4.25 12.6103 4.32902 12.4697 4.46967C12.329 4.61032 12.25 4.80109 12.25 5C12.25 5.19891 12.329 5.38968 12.4697 5.53033C12.6103 5.67098 12.8011 5.75 13 5.75H15.25V8.565L8.625 12.3488C8.51073 12.4147 8.41589 12.5097 8.35005 12.624C8.28421 12.7384 8.2497 12.8681 8.25 13V15.575L3.61375 18.3575C3.50285 18.4241 3.41108 18.5183 3.34734 18.6309C3.2836 18.7435 3.25007 18.8706 3.25 19V27C3.25 27.1989 3.32902 27.3897 3.46967 27.5303C3.61032 27.671 3.80109 27.75 4 27.75H14C14.1989 27.75 14.3897 27.671 14.5303 27.5303C14.671 27.3897 14.75 27.1989 14.75 27V21C14.75 20.6685 14.8817 20.3505 15.1161 20.1161C15.3505 19.8817 15.6685 19.75 16 19.75C16.3315 19.75 16.6495 19.8817 16.8839 20.1161C17.1183 20.3505 17.25 20.6685 17.25 21V27C17.25 27.1989 17.329 27.3897 17.4697 27.5303C17.6103 27.671 17.8011 27.75 18 27.75H28C28.1989 27.75 28.3897 27.671 28.5303 27.5303C28.671 27.3897 28.75 27.1989 28.75 27V19C28.7499 18.8706 28.7164 18.7435 28.6527 18.6309C28.5889 18.5183 28.4971 18.4241 28.3862 18.3575ZM4.75 19.425L8.25 17.325V26.25H4.75V19.425ZM16 18.25C15.2707 18.25 14.5712 18.5397 14.0555 19.0555C13.5397 19.5712 13.25 20.2707 13.25 21V26.25H9.75V13.435L16 9.86375L22.25 13.435V26.25H18.75V21C18.75 20.2707 18.4603 19.5712 17.9445 19.0555C17.4288 18.5397 16.7293 18.25 16 18.25ZM27.25 26.25H23.75V17.325L27.25 19.425V26.25Z" fill="#252849"/>
</svg>
